# xmcd
#
# Track frame offsets:
#	150
#	19234
#	37159
#	56207
#	73983
#	91876
#	109386
#	126818
#	143367
#	157301
#
# Disc length: 2410 seconds
#
# Revision: 1
# Processed by: cddbd v1.5.2PL0 Copyright (c) Steve Scherf et al.
# Submitted via: audiograbber 1.83.01
#
DISCID=9609680a
DTITLE=陳秀雯 - 夢幻夢
DYEAR=1986
DGENRE=
TTITLE0=夢幻夢
TTITLE1=請勿騷擾
TTITLE2=枯\萎
TTITLE3=忘記
TTITLE4=假面具
TTITLE5=痴心玩偶
TTITLE6=千噸誘惑
TTITLE7=愛的日記
TTITLE8=我怕黑
TTITLE9=你
EXTD=
EXTT0=
EXTT1=
EXTT2=
EXTT3=
EXTT4=
EXTT5=
EXTT6=
EXTT7=
EXTT8=
EXTT9=
PLAYORDER=
